<?xml version="1.0" encoding="utf-8"?>
<!-- Generator: Adobe Illustrator 15.0.0, SVG Export Plug-In . SVG Version: 6.00 Build 0)  -->
<!DOCTYPE svg PUBLIC "-//W3C//DTD SVG 1.1//EN" "http://www.w3.org/Graphics/SVG/1.1/DTD/svg11.dtd">
<svg version="1.1" id="图层_1" xmlns="http://www.w3.org/2000/svg" xmlns:xlink="http://www.w3.org/1999/xlink" x="0px" y="0px"
	 width="80px" height="80px" viewBox="0 0 80 80" enable-background="new 0 0 80 80" xml:space="preserve">
<path fill="#FF8A00" d="M23.357,29.755c0-4.931,4.316-8.943,9.622-8.943h10.927l-0.204-0.834c-0.843-3.422-4.6-5.45-8.375-4.521
	l-22.353,5.501c-3.774,0.929-6.16,4.469-5.318,7.893l6.974,28.331c0.842,3.422,4.598,5.452,8.373,4.522l0.531-0.13
	c-0.115-0.555-0.177-1.126-0.177-1.71V29.755L23.357,29.755z"/>
<path fill="#FF8A00" d="M48.781,19.437c0.175,0.479,0.807,0.797,1.454,0.797c0.18,0,0.36-0.025,0.533-0.077l0.167-0.051
	c0.424-0.129,0.821-0.476,1.035-0.903c0.158-0.317,0.192-0.631,0.101-0.884l-2.554-6.934c-0.234-0.635-1.388-0.914-2.136-0.688
	l-0.099,0.029c-0.388,0.117-0.729,0.418-0.932,0.824c-0.174,0.351-0.214,0.713-0.108,0.998L48.781,19.437z"/>
<path fill="#FF8A00" d="M59.981,20.955l0.163,0.06c0.196,0.071,0.41,0.104,0.626,0.104c0.632,0,1.27-0.286,1.465-0.729l3.014-6.779
	c0.1-0.225,0.084-0.515-0.045-0.814c-0.199-0.471-0.619-0.882-1.072-1.047l-0.099-0.034c-0.764-0.278-1.85,0.053-2.11,0.646
	l-2.994,6.735c-0.106,0.242-0.091,0.55,0.045,0.871C59.165,20.42,59.552,20.8,59.981,20.955L59.981,20.955z"/>
<path fill="#FF8A00" d="M39.546,53.544"/>
<path fill="#FF8A00" d="M75.34,19.801l-0.07-0.069c-0.576-0.568-1.688-0.713-2.199-0.287l-5.887,4.898
	c-0.223,0.185-0.358,0.507-0.374,0.885c-0.021,0.475,0.151,0.949,0.448,1.24l0.118,0.118c0.338,0.332,0.854,0.521,1.324,0.536
	c0.33,0.009,0.639-0.067,0.846-0.238l5.925-4.93c0.21-0.175,0.334-0.472,0.349-0.834C75.84,20.625,75.651,20.107,75.34,19.801
	L75.34,19.801z"/>
<path fill="#FF8A00" d="M56.734,23.159H32.98c-4.011,0-7.274,2.959-7.274,6.596v30.108c0,3.638,3.264,6.597,7.274,6.597h23.754
	c4.01,0,7.274-2.959,7.274-6.597V29.755C64.009,26.119,60.744,23.159,56.734,23.159z M50.779,53.544
	c0.772,0,1.402,0.577,1.402,1.285c0,0.707-0.63,1.282-1.402,1.282h-4.215v2.779c0,0.707-0.629,1.283-1.402,1.283
	c-0.772,0-1.401-0.576-1.401-1.283v-2.779h-4.214c-0.772,0-1.401-0.575-1.401-1.282c0-0.708,0.629-1.285,1.401-1.285h4.214v-1.621
	h-4.214c-0.772,0-1.401-0.576-1.401-1.283c0-0.708,0.629-1.282,1.401-1.282h2.984l-3.292-4.481c-0.205-0.282-0.281-0.619-0.216-0.95
	c0.07-0.347,0.285-0.646,0.608-0.841l0,0c0.639-0.386,1.506-0.224,1.934,0.356l3.531,4.806l3.527-4.806
	c0.429-0.582,1.297-0.742,1.934-0.356c0.324,0.195,0.54,0.492,0.609,0.841c0.066,0.331-0.012,0.668-0.217,0.95l-3.291,4.481h3.119
	c0.772,0,1.402,0.574,1.402,1.282c0,0.707-0.63,1.283-1.402,1.283h-4.215v1.621H50.779z M60.046,32.427l-14.416,5.85
	c-0.149,0.062-0.31,0.092-0.468,0.092c-0.159,0-0.317-0.03-0.468-0.092l-14.417-5.859c-0.636-0.259-0.94-0.984-0.683-1.621
	c0.258-0.635,0.982-0.941,1.62-0.682l13.948,5.669l13.948-5.66c0.634-0.259,1.36,0.048,1.618,0.685
	C60.989,31.443,60.683,32.167,60.046,32.427z"/>
</svg>
