<?xml version="1.0" encoding="utf-8"?>
<!-- Generator: Adobe Illustrator 15.0.0, SVG Export Plug-In . SVG Version: 6.00 Build 0)  -->
<!DOCTYPE svg PUBLIC "-//W3C//DTD SVG 1.1//EN" "http://www.w3.org/Graphics/SVG/1.1/DTD/svg11.dtd">
<svg version="1.1" id="图层_1" xmlns="http://www.w3.org/2000/svg" xmlns:xlink="http://www.w3.org/1999/xlink" x="0px" y="0px"
	 width="80px" height="80px" viewBox="-25 -25 80 80" enable-background="new -25 -25 80 80" xml:space="preserve">
<path fill="#89FE00" d="M-17.4,5.457c0-1.29,0.219-2.21,0.634-2.768c0.423-0.549,1.355-0.818,2.817-0.818h8.986v35.84h-3.859
	c-1.018,0-2.034-0.01-3.052-0.033c-1.014-0.015-1.698-0.034-2.072-0.034c-1.266,0.051-2.157-0.166-2.674-0.649
	c-0.512-0.477-0.777-1.391-0.777-2.729V23.949c0-0.524,0.089-0.924,0.248-1.175c0.159-0.262,0.5-0.444,1.018-0.543
	c0.191,0,0.439-0.072,0.777-0.215c0.321-0.151,0.651-0.382,0.977-0.692c0.325-0.309,0.611-0.708,0.842-1.215
	c0.232-0.498,0.355-1.104,0.355-1.829c0-1.1-0.289-1.953-0.875-2.577c-0.586-0.618-1.213-0.985-1.872-1.07
	c-0.509-0.092-0.888-0.256-1.12-0.468c-0.236-0.224-0.354-0.589-0.354-1.114L-17.4,5.457 M-11.568-1.353v-1.868
	c0-0.949,0.369-1.839,1.09-2.65c0.72-0.81,1.51-1.221,2.353-1.221h9.702v5.739H-11.568 M45.707,14.199
	c-0.365,0.101-0.642,0.301-0.811,0.618c-0.148,0.302-0.248,0.651-0.248,1.026c0,0.39,0.095,0.758,0.248,1.109
	c0.169,0.368,0.445,0.621,0.811,0.761c0.373,0.148,0.677,0.433,0.884,0.856c0.216,0.436,0.334,0.885,0.351,1.366
	c0.024,0.462-0.036,0.922-0.175,1.362c-0.143,0.426-0.35,0.74-0.628,0.934c-0.934,0.574-1.4,1.217-1.4,1.934
	c0,0.718,0.462,1.441,1.4,2.146c0.192,0.149,0.36,0.414,0.524,0.784c0.158,0.39,0.24,0.771,0.24,1.16
	c0,0.385-0.084,0.707-0.274,0.993c-0.192,0.294-0.52,0.436-0.986,0.436h-3.792c-0.27,0-0.428-0.023-0.445-0.082
	c-0.023-0.048,0.008-0.125,0.094-0.24c0.095-0.125,0.207-0.255,0.352-0.406c0.14-0.143,0.255-0.311,0.356-0.501
	c0.233-0.666,0.233-1.241,0-1.718c-0.241-0.483-0.626-0.883-1.198-1.215c-0.376-0.192-0.652-0.493-0.804-0.909
	c-0.166-0.399-0.231-0.818-0.207-1.249c0.015-0.436,0.094-0.811,0.24-1.143c0.143-0.342,0.356-0.583,0.626-0.727
	c0.385-0.143,0.659-0.407,0.842-0.784c0.192-0.376,0.284-0.785,0.284-1.218c0-0.431-0.079-0.828-0.207-1.184
	c-0.14-0.358-0.349-0.611-0.643-0.751c-0.365-0.197-0.656-0.474-0.873-0.866c-0.212-0.365-0.313-0.794-0.313-1.272
	c0-0.485,0.084-0.944,0.274-1.4c0.192-0.456,0.485-0.827,0.909-1.112c0.293-0.191,0.524-0.451,0.707-0.786
	c0.2-0.341,0.284-0.691,0.325-1.074c0.026-0.386-0.065-0.753-0.214-1.111c-0.169-0.362-0.462-0.654-0.886-0.895
	c-0.457-0.236-0.809-0.589-1.016-1.037c-0.207-0.456-0.317-0.929-0.317-1.4c0-0.485,0.108-0.932,0.317-1.368
	c0.207-0.422,0.501-0.765,0.874-1.009c0.794-0.423,1.241-1.013,1.301-1.75c0.075-0.74,0.02-1.428-0.173-2.039
	c-0.151-0.483-0.424-0.912-0.835-1.294c-0.426-0.386-0.97-0.574-1.619-0.574H5.872v-5.661H45.44c0.325,0,0.592,0.123,0.825,0.358
	c0.238,0.241,0.397,0.526,0.469,0.862c0.072,0.334,0.049,0.68-0.074,1.039c-0.11,0.354-0.334,0.663-0.666,0.903
	c-0.287,0.241-0.534,0.542-0.741,0.927c-0.217,0.383-0.317,0.774-0.358,1.185c-0.017,0.41,0.048,0.81,0.183,1.221
	c0.135,0.403,0.393,0.704,0.768,0.895c0.526,0.285,0.909,0.68,1.162,1.175c0.26,0.501,0.395,1.002,0.395,1.499
	c0,0.508-0.135,0.972-0.393,1.399c-0.255,0.436-0.61,0.75-1.082,0.932c-0.515,0.2-0.9,0.468-1.126,0.827
	c-0.241,0.362-0.358,0.757-0.39,1.18c-0.024,0.431,0.063,0.851,0.267,1.253c0.217,0.412,0.559,0.765,1.027,1.05
	c0.467,0.277,0.818,0.659,1.025,1.144c0.199,0.45,0.293,0.939,0.273,1.432c-0.019,0.463-0.139,0.914-0.349,1.328
	C46.441,13.917,46.134,14.149,45.707,14.199 M36.574,13.125c-0.556,0.142-0.993,0.423-1.302,0.818
	c-0.303,0.415-0.459,0.827-0.493,1.266c-0.017,0.427,0.104,0.858,0.352,1.294c0.267,0.424,0.643,0.734,1.167,0.925
	c0.462,0.199,0.818,0.483,1.049,0.858c0.24,0.39,0.368,0.794,0.393,1.225c0.023,0.421-0.061,0.84-0.248,1.218
	c-0.183,0.382-0.47,0.676-0.842,0.858c-1.17,0.583-1.783,1.273-1.819,2.084c-0.058,0.809,0.39,1.453,1.326,1.939
	c0.421,0.188,0.776,0.5,1.018,0.893c0.26,0.406,0.399,0.835,0.428,1.294c0.024,0.445-0.067,0.859-0.257,1.21
	c-0.186,0.373-0.493,0.609-0.907,0.763c-0.568,0.143-0.994,0.399-1.312,0.787c-0.294,0.375-0.45,0.784-0.477,1.208
	c-0.031,0.442,0.084,0.866,0.349,1.294c0.258,0.436,0.669,0.794,1.228,1.083c0.383,0.192,0.643,0.491,0.809,0.891
	c0.168,0.416,0.226,0.803,0.183,1.186c-0.058,0.383-0.183,0.731-0.399,1.032c-0.207,0.317-0.5,0.47-0.881,0.47H-0.816V1.871H36.36
	c0.373,0,0.674,0.146,0.89,0.468c0.207,0.309,0.318,0.652,0.352,1.038c0.024,0.386-0.067,0.765-0.257,1.144
	c-0.186,0.378-0.493,0.647-0.907,0.786c-0.424,0.146-0.766,0.386-1.027,0.721c-0.26,0.328-0.407,0.707-0.46,1.106
	c-0.038,0.411,0.058,0.798,0.284,1.184c0.24,0.386,0.635,0.671,1.203,0.859c0.414,0.191,0.765,0.476,1.016,0.862
	c0.255,0.386,0.408,0.774,0.423,1.177c0.024,0.418-0.072,0.792-0.274,1.16C37.393,12.725,37.051,12.982,36.574,13.125
	 M19.637,17.934c-0.225,0-0.477-0.023-0.741-0.072c-0.253-0.058-0.301-0.199-0.176-0.435c0.058-0.085,0.276-0.429,0.676-1.001
	c0.426-0.623,0.871-1.232,1.336-1.828c0.49-0.652,0.936-1.258,1.376-1.828c0.414-0.575,0.674-0.932,0.765-1.083
	c0.241-0.374,0.092-0.827-0.423-1.356c-0.087-0.097-0.279-0.244-0.568-0.44c-0.267-0.187-0.529-0.329-0.76-0.422
	c-0.383-0.138-0.65-0.167-0.818-0.07c-0.149,0.094-0.356,0.306-0.59,0.644c-0.094,0.138-0.324,0.488-0.709,1.035
	c-0.371,0.561-0.771,1.139-1.191,1.761c-0.378,0.564-0.765,1.124-1.162,1.677c-0.356,0.509-0.552,0.803-0.593,0.904
	c-0.089,0.184-0.272,0.265-0.533,0.217c-0.256-0.05-0.427-0.167-0.516-0.359c-0.058-0.094-0.261-0.375-0.639-0.835
	c-0.421-0.493-0.82-1.006-1.197-1.534c-0.415-0.583-0.825-1.104-1.225-1.612c-0.403-0.504-0.668-0.847-0.814-1.045
	c-0.424-0.811-0.868-1.07-1.331-0.782c-0.312,0.176-0.609,0.378-0.888,0.603c-0.229,0.201-0.474,0.385-0.732,0.55
	c-0.468,0.325-0.537,0.76-0.212,1.285c0.794,0.953,1.503,1.836,2.113,2.654c0.512,0.668,1,1.305,1.477,1.941
	c0.464,0.611,0.745,0.97,0.835,1.076c0.098,0.183,0,0.283-0.281,0.283H11.28c-0.232,0-0.579,0.01-1.018,0.034
	C9.811,17.92,9.4,17.91,9.021,17.861c-0.371,0-0.68,0.087-0.916,0.284c-0.227,0.186-0.301,0.424-0.203,0.71
	c0.044,0.199,0.068,0.483,0.068,0.859v0.875c0,0.231,0.065,0.366,0.212,0.39c0.143,0.02,0.302,0.029,0.493,0.029h4.077
	c0.555,0,0.835,0.118,0.835,0.356v1.361c0,0.248-0.041,0.366-0.139,0.366H8.741c-0.278-0.049-0.46,0.023-0.558,0.206
	c-0.093,0.21-0.164,0.429-0.212,0.652c-0.049,0.248-0.049,0.467,0,0.676c0.043,0.176,0.065,0.359,0.065,0.539
	c0,0.628,0.305,0.938,0.915,0.938h4.222c0.244,0,0.379,0.031,0.418,0.102c0.044,0.072,0.073,0.23,0.073,0.467
	c0.049,0.24,0.065,0.669,0.033,1.287c-0.021,0.628-0.036,1.029-0.036,1.229c0,0.524,0.304,0.784,0.911,0.784h2.256
	c0.373,0,0.563-0.118,0.563-0.366v-2.86c0-0.483,0.217-0.725,0.628-0.725h0.635c0.325,0,0.7-0.009,1.09-0.043
	c0.409-0.015,0.785-0.031,1.153-0.031h0.916c0.649,0,0.991-0.24,0.991-0.707v-1.583c0-0.436-0.23-0.652-0.697-0.652H18.02
	c-0.46,0.101-0.71,0-0.71-0.284c0-0.178-0.01-0.355-0.031-0.534c-0.024-0.217-0.026-0.406-0.026-0.606
	c0-0.183,0.072-0.334,0.238-0.423c0.171-0.102,0.344-0.149,0.529-0.149h4.15c0.462,0,0.702-0.159,0.702-0.5v-1.723
	c0-0.193-0.081-0.376-0.25-0.565c-0.166-0.2-0.365-0.287-0.595-0.287h-2.394l0,0H19.637z"/>
</svg>
